<?xml version="1.0" encoding="utf-8"?>
<!-- Generator: Adobe Illustrator 19.0.0, SVG Export Plug-In . SVG Version: 6.00 Build 0)  -->
<svg version="1.1" id="Layer_1" xmlns="http://www.w3.org/2000/svg" xmlns:xlink="http://www.w3.org/1999/xlink" x="0px" y="0px"
	 viewBox="0 0 283.5 283.5" style="enable-background:new 0 0 283.5 283.5;" xml:space="preserve">
<defs>
  <filter id="fill-black-under-pattern" x="0" y="0" width="100%" height="100%">
    <!-- White background layer -->
    <feFlood flood-color="black" result="bg" />
    <!-- Pattern layer with transparent spaces -->
    <feBlend in="SourceGraphic" in2="bg" mode="normal" />
  </filter>
</defs>
<style type="text/css">
	.st0{fill:none;}
	.st1{fill:#867B6C;}
	.st2{fill:#966B55;}
	.st3{fill:#623C25;}
	.st4{fill:#95171A;}
	.st5{fill:url(#Diamond_Harlequin_Color);stroke:#231F20;stroke-miterlimit:10;filter:url(#fill-black-under-pattern);}
</style>
<pattern  width="60.3" height="68.2" patternUnits="userSpaceOnUse" id="Diamond_Harlequin_Color" viewBox="10.1 -85.3 60.3 68.2" style="overflow:visible;">
	<g>
		<polygon class="st0" points="10.1,-85.3 70.4,-85.3 70.4,-17.1 10.1,-17.1 		"/>
		<g>
			<polygon class="st1" points="80.4,-17.1 70.4,-34.1 60.3,-17.1 70.4,0 			"/>
		</g>
		<g>
			<polygon class="st1" points="80.4,-17.1 70.4,-34.1 60.3,-17.1 70.4,0 			"/>
			<polygon class="st2" points="60.3,-17.1 50.3,-34.1 40.2,-17.1 50.3,0 			"/>
			<polygon class="st3" points="40.2,-17.1 30.2,-34.1 20.1,-17.1 30.2,0 			"/>
			<polygon class="st1" points="20.1,-17.1 10.1,-34.1 0,-17.1 10.1,0 			"/>
		</g>
		<g>
			<polygon class="st1" points="20.1,-17.1 10.1,-34.1 0,-17.1 10.1,0 			"/>
		</g>
		<g>
			<polygon class="st1" points="80.4,-17.1 70.4,-34.1 60.3,-17.1 70.4,0 			"/>
			<polygon class="st4" points="80.4,-51.2 70.4,-68.2 60.3,-51.2 70.4,-34.1 			"/>
			<polygon class="st1" points="80.4,-85.3 70.4,-102.4 60.3,-85.3 70.4,-68.2 			"/>
		</g>
		<g>
			<polygon class="st1" points="80.4,-17.1 70.4,-34.1 60.3,-17.1 70.4,0 			"/>
			<polygon class="st2" points="60.3,-17.1 50.3,-34.1 40.2,-17.1 50.3,0 			"/>
			<polygon class="st3" points="40.2,-17.1 30.2,-34.1 20.1,-17.1 30.2,0 			"/>
			<polygon class="st1" points="20.1,-17.1 10.1,-34.1 0,-17.1 10.1,0 			"/>
			<polygon class="st4" points="80.4,-51.2 70.4,-68.2 60.3,-51.2 70.4,-34.1 			"/>
			<polygon class="st3" points="60.3,-51.2 50.3,-68.2 40.2,-51.2 50.3,-34.1 			"/>
			<polygon class="st2" points="40.2,-51.2 30.2,-68.2 20.1,-51.2 30.2,-34.1 			"/>
			<polygon class="st4" points="20.1,-51.2 10.1,-68.2 0,-51.2 10.1,-34.1 			"/>
			<polygon class="st1" points="80.4,-85.3 70.4,-102.4 60.3,-85.3 70.4,-68.2 			"/>
			<polygon class="st2" points="60.3,-85.3 50.3,-102.4 40.2,-85.3 50.3,-68.2 			"/>
			<polygon class="st3" points="40.2,-85.3 30.2,-102.4 20.1,-85.3 30.2,-68.2 			"/>
			<polygon class="st1" points="20.1,-85.3 10.1,-102.4 0,-85.3 10.1,-68.2 			"/>
		</g>
		<g>
			<polygon class="st1" points="20.1,-17.1 10.1,-34.1 0,-17.1 10.1,0 			"/>
			<polygon class="st4" points="20.1,-51.2 10.1,-68.2 0,-51.2 10.1,-34.1 			"/>
			<polygon class="st1" points="20.1,-85.3 10.1,-102.4 0,-85.3 10.1,-68.2 			"/>
		</g>
		<g>
			<polygon class="st1" points="80.4,-85.3 70.4,-102.4 60.3,-85.3 70.4,-68.2 			"/>
		</g>
		<g>
			<polygon class="st1" points="80.4,-85.3 70.4,-102.4 60.3,-85.3 70.4,-68.2 			"/>
			<polygon class="st2" points="60.3,-85.3 50.3,-102.4 40.2,-85.3 50.3,-68.2 			"/>
			<polygon class="st3" points="40.2,-85.3 30.2,-102.4 20.1,-85.3 30.2,-68.2 			"/>
			<polygon class="st1" points="20.1,-85.3 10.1,-102.4 0,-85.3 10.1,-68.2 			"/>
		</g>
		<g>
			<polygon class="st1" points="20.1,-85.3 10.1,-102.4 0,-85.3 10.1,-68.2 			"/>
		</g>
	</g>
</pattern>
<path id="XMLID_1_" class="st5" d="M20.2,31.4V251c0,6.2,5,11.3,11.3,11.3h219.6c6.2,0,11.3-5,11.3-11.3V31.4
	c0-6.2-5-11.3-11.3-11.3H31.4C25.2,20.1,20.2,25.2,20.2,31.4z"/>
</svg>
